<svg xmlns="http://www.w3.org/2000/svg" width="32" height="32" id="statics"><path fill="#429ffc" d="M21.5 3v1h.824l-2.738 3H3.5a.5.5 0 0 0-.5.5v17a.5.5 0 0 0 .5.5H12v3H9.5a.5.5 0 1 0 0 1h13a.5.5 0 1 0 0-1H20v-3h8.5a.5.5 0 0 0 .5-.5v-17a.5.5 0 0 0-.5-.5h-7.563L23 4.742V5.5h1V3h-2.5zM4 8h14.672l-4.754 5.207-3.566-3.635L7 13.762V10H6v9h19v-1H7.635l2.912-3.746 1.969 1.97 1.43-1.566 1.87 1.906 3.53-4.134L22.37 15H21.5v1H24v-2.5h-1v.723l-3.766-3.202-3.47 4.065-1.145-1.166L20.025 8H28v13H4V8zm6.43 3.076 2.814 2.87-.76.831-2.03-2.03L7 17.185v-1.823l3.43-4.287zM4 22h24v2H4v-2zm9 3h6v3h-6v-3z" color="#000" font-family="sans-serif" font-weight="400" overflow="visible" style="line-height:normal;text-indent:0;text-align:start;text-decoration-line:none;text-decoration-style:solid;text-decoration-color:#000;text-transform:none;block-progression:tb;white-space:normal;isolation:auto;mix-blend-mode:normal;solid-color:#000;solid-opacity:1"></path></svg>